PathFileType	4	(X/Y/Z)	Patient4_TMGait_0pt5_01_right_04.trc.trc
DataRate	CameraRate	NumFrames	NumMarkers	Units	OrigDataRate	OrigDataStartFrame	OrigNumFrames
71.428571428571	71.428571428571	4	33	mm	71.428571428571	89	       141
Frame#	Time	L.ASIS			Sacral			L.Shoulder			Chest			R.Shoulder			Neck			R.ASIS			R.Thigh.Superior			R.Thigh.Lateral			R.Thigh.Inferior			R.Patella			L.Thigh.Superior			L.Thigh.Lateral			L.Thigh.Inferior			L.Patella			L.Shank.Superior			L.Shank.Lateral			L.Shank.Inferior			R.Shank.Superior			R.Shank.Lateral			R.Shank.Inferior			R.Heel			R.Midfoot.Superior			R.Midfoot.Lateral			R.Toe			L.Heel			L.Midfoot.Lateral			L.Midfoot.Superior			L.Toe			L.Elbow			L.Wrist			R.Elbow			R.Wrist			
		X1	Y1	Z1	X2	Y2	Z2	X3	Y3	Z3	X4	Y4	Z4	X5	Y5	Z5	X6	Y6	Z6	X7	Y7	Z7	X8	Y8	Z8	X9	Y9	Z9	X10	Y10	Z10	X11	Y11	Z11	X12	Y12	Z12	X13	Y13	Z13	X14	Y14	Z14	X15	Y15	Z15	X16	Y16	Z16	X17	Y17	Z17	X18	Y18	Z18	X19	Y19	Z19	X20	Y20	Z20	X21	Y21	Z21	X22	Y22	Z22	X23	Y23	Z23	X24	Y24	Z24	X25	Y25	Z25	X26	Y26	Z26	X27	Y27	Z27	X28	Y28	Z28	X29	Y29	Z29	X30	Y30	Z30	X31	Y31	Z31	X32	Y32	Z32	X33	Y33	Z33	

89	5.792000000000	729.575957871958	961.714035510271	321.936054587342	524.939780237939	1004.993919135329	492.749057898754	675.146832750840	1436.568456528129	308.982021376093	792.814768697636	1363.095906848974	458.319434345982	725.191983053299	1435.550593882838	640.239468104424	688.688742531290	1494.424671151465	459.460370322183	759.080366542105	935.100455229713	594.139983340689	774.237848859447	725.820476881844	574.637295329017	680.899479684712	626.479419753138	638.677470358181	752.324392024927	559.869391794856	563.839195494572	734.819171949455	455.833302174068	580.361161234018	801.115066185600	766.130120217747	359.249997714386	731.078485986937	637.943369070988	300.702953463520	823.459213031069	571.380316308047	366.710005459366	833.615287102814	499.499755936524	377.484316287089	810.716154342805	425.265283337023	368.892031633875	732.055097832777	306.614493219473	312.992199489912	783.514130749073	197.995667190080	385.797700594619	662.474749061204	387.145781670866	586.348622889855	548.557492762860	334.876010296644	649.372150521492	540.981114398380	227.331004381450	595.088597987016	342.526022662556	137.389537422156	570.505964575935	518.963570542886	109.988083235795	604.868403585550	412.367935980241	85.853877366414	638.961494917280	602.843915329591	33.703638114262	622.886018353183	657.306955654830	39.565512100471	417.019760319051	736.290607415576	36.785262958232	341.624534987599	818.793946165076	96.909691505703	372.654635988001	947.751781303764	40.966265821047	352.093525878691	588.850388320916	1094.530529305511	191.895578411384	689.537035054772	852.209744865113	176.751350156442	797.101324849120	1095.793663089576	752.415416794750	1018.193269037331	965.765872311745	718.932672847358	
90	5.806000000000	729.563869709678	961.784678357048	318.885660734097	524.571657946263	1004.814849382082	489.551089311739	675.865382976408	1437.153242967735	307.175424720423	792.869414977717	1363.134933773723	456.767131883970	724.463902266783	1434.920092852163	638.699979860631	688.823430565618	1494.475541055437	457.852932862911	758.562936746554	935.158012583431	590.915589475185	778.620963546967	727.036383305757	571.469320788216	688.615742587450	625.988181489504	636.252901599317	761.497136378610	560.529446581979	561.079454214905	745.569075647751	454.945952514584	578.917333983710	800.033338608256	765.093828862765	355.989675696599	728.640617053397	637.431992441667	298.303263103461	820.394776472715	570.292810297026	364.460729013966	829.848942773726	498.440225621415	375.614772508481	806.443549671536	424.183520165077	367.270027244161	726.867630485543	305.905675651244	311.854236060671	777.387656011878	197.301551383297	385.227392073809	671.130467639346	387.326466726597	585.309221680439	555.585170469400	339.129466330757	648.512215991345	544.697249267343	231.540625944195	595.350196866734	343.946209021093	150.978560654857	571.718147033101	517.872015190881	112.768011808327	605.429794146339	410.540049198799	95.090633946697	639.753015847988	596.050556292835	32.632300829859	623.018931484587	650.119511035873	39.191626057287	416.870495912635	729.118844353904	36.484405749189	341.413524464726	811.587811522920	96.685118445967	372.568929965958	940.653635783377	40.872475902607	352.089249628456	591.729311872936	1095.610739196535	186.945344757517	700.266228997169	856.600729276608	172.966142041223	787.325483032912	1092.708401728923	750.542376149079	1000.724127855094	947.643896296385	726.981696668551	
91	5.820000000000	729.380196997166	961.788536022812	315.985808161713	524.027348826102	1004.511393963024	486.541817208303	676.430425573246	1437.584594349578	305.459156814921	792.757593322956	1363.044533601157	455.316382680966	723.560141242851	1434.159126530269	637.264392201696	688.856178651857	1494.414820926162	456.320853152355	757.916404827312	935.140347661524	587.913155502584	783.308403606646	728.518667033693	568.098348471018	697.186269216673	625.603027059127	633.746352334427	771.458481161898	561.555849478587	557.987652907123	757.354333163564	454.436451699041	576.978986942970	798.758056388271	764.011650614595	352.933729443169	726.107569081274	636.947309588191	295.931813366565	817.137469850837	569.197594146814	362.325475682802	825.858353218678	497.361028898426	373.795571410712	801.998608989106	423.100764044604	365.657503843921	721.588113640856	305.173259089941	310.679048160657	771.196776744867	196.603830606482	384.638135196246	680.908285568662	387.813069182204	583.890819611122	563.921964852620	343.780567145990	647.447761236818	549.551819759017	236.305853766793	595.342820987698	346.931313425490	165.710711066188	572.741257318172	517.705664301348	116.342517634268	605.826365763137	409.922512714369	105.566891083243	640.466036107181	589.682231756580	31.441978282481	623.225915332397	642.955066275620	38.814329653339	416.719293548920	721.964185736097	36.196515576867	341.180393592567	804.382660919295	96.473743374430	372.469000142400	933.563532838177	40.843251484298	352.075975460897	594.662307347302	1096.552970357788	182.006974472209	710.842101788249	861.108033173065	169.218525835043	776.858102032188	1089.743046703268	748.837168218320	981.215239203517	930.407626587166	735.064855980204	
92	5.834000000000	729.037219327616	961.756150363890	313.274310356335	523.292344246197	1004.118503182335	483.717986954762	676.869973234413	1437.884810829554	303.838113541952	792.485735259597	1362.853789638607	453.990823274858	722.470949884653	1433.321184050871	635.937076172841	688.800906146033	1494.276073632723	454.867853753502	757.141862235181	935.081701469208	585.183221989536	788.184406109362	730.341580652412	564.585249863810	706.414920991513	625.453582069350	631.182157378672	782.010211692160	563.055052404781	554.639553686144	769.976798172072	454.437042953651	574.588452832389	797.311538457628	762.912026230038	350.045075032258	723.451932190263	636.497254833396	293.616423836994	813.716368543696	568.113376934252	360.266856466100	821.687985106405	496.292820032707	372.017840244676	797.417995307408	422.046016185652	364.069901456751	716.246115855608	304.449897001704	309.482317025368	764.959743776848	195.924765421985	384.040186499634	691.639763445181	388.702948985656	582.099574125224	573.406584325299	348.826279764867	646.149214702447	555.502770858070	241.599450253758	595.021102027355	351.490305674082	181.212484890270	573.451634904828	518.612693243985	120.749969414210	606.026760732593	410.653557633035	117.058436510691	641.011705420813	584.043567183869	30.262395978421	623.487690364729	635.819352013296	38.461384983286	416.573624977470	714.830503146706	35.937555797243	340.937489343537	797.188860400980	96.284462770046	372.354947915665	926.483376426027	40.866593130315	352.047169561829	597.681216359661	1097.362333499455	177.141898849466	721.210310631064	865.683068803177	165.544582728817	765.787208557693	1087.022102454554	747.346386444450	959.833859752396	914.286108906150	743.002633359939	
